<?xml version="1.0" encoding="UTF-8"?>
<svg width="131px" height="51px" viewBox="0 0 131 51" version="1.1" xmlns="http://www.w3.org/2000/svg" xmlns:xlink="http://www.w3.org/1999/xlink">
    <!-- Generator: sketchtool 41 (35326) - http://www.bohemiancoding.com/sketch -->
    <title>C8E98448-BB6C-4AD3-A410-D3906B0B53C7</title>
    <desc>Created with sketchtool.</desc>
    <defs>
        <polygon id="path-1" points="0 49.9771167 130.222912 49.9771167 130.222912 0.294508009 0 0.294508009"></polygon>
    </defs>
    <g id="Page-1" stroke="none" stroke-width="1" fill="none" fill-rule="evenodd">
        <g id="Homepage" transform="translate(-38.000000, -125.000000)">
            <g id="Nav-bar" transform="translate(0.000000, 100.000000)">
                <g id="Aspire-2-int-logo" transform="translate(38.000000, 25.000000)">
                    <g id="Group-20" transform="translate(0.000000, 0.597584)">
                        <polygon id="Fill-1" fill="#AED148" points="41.7310748 49.9771167 129.595537 49.9771167 129.595537 37.9567277 41.7310748 37.9567277"></polygon>
                        <path d="M129.330507,29.3978787 L106.362732,29.3978787 L106.362732,25.43273 C106.362732,18.8393204 120.811943,14.8349039 120.811943,10.4387025 C120.811943,8.79035011 119.651657,7.61321053 117.644773,7.61321053 C115.19231,7.61321053 114.122922,9.61497254 114.122922,11.9308764 L105.959929,10.7528444 C106.004487,5.33568192 108.903419,0.469160183 118.090351,0.469160183 C126.074222,0.469160183 130.222555,4.5110595 130.222555,9.8496865 C130.222555,17.268611 117.554766,20.1735309 117.554766,22.6465057 L117.554766,22.6857735 L129.330507,22.6857735 L129.330507,29.3978787 L129.330507,29.3978787 Z" id="Fill-2" fill="#AED148"></path>
                        <path d="M19.3854156,20.8441167 C18.5236673,20.8441167 18.1716605,20.5228352 18.1716605,19.6312792 L18.1716605,8.07496339 L12.2187354,8.07496339 L12.2187354,9.36008924 L12.1019939,9.36008924 C12.1019939,9.36008924 10.7305041,7.86166819 7.87167415,7.86166819 C2.9765517,7.86166819 8.91156462e-05,10.5015309 8.91156462e-05,16.8486247 C8.91156462e-05,23.2680069 3.3285585,25.9435675 7.28351088,25.9435675 C11.4746197,25.9435675 11.9442592,23.6258787 11.9442592,23.6258787 L12.1795245,23.6258787 L12.1795245,23.6606842 C12.1795245,24.2675492 13.1589054,25.9435675 16.4089531,25.9435675 C19.1492592,25.9435675 20.2854837,25.4794943 20.2854837,25.4794943 L20.2854837,20.7004325 C20.2854837,20.7004325 19.8158442,20.8441167 19.3854156,20.8441167 M9.24316395,20.8789222 C8.06772857,20.8789222 7.04913673,20.0230641 7.04913673,16.8486247 C7.04913673,13.7107757 8.06772857,13.1039108 9.24316395,13.1039108 C10.8080347,13.1039108 11.5147218,13.8169771 11.5147218,16.8486247 C11.5147218,19.9168627 10.7305041,20.8789222 9.24316395,20.8789222" id="Fill-4" fill="#185793"></path>
                        <path d="M21.0785238,13.567984 C21.0785238,10.9281213 23.6218844,7.82597025 29.7325442,7.82597025 C36.1542177,7.82597025 39.0531497,10.1802494 39.0531497,13.1396087 L32.4354218,14.0320572 C32.4354218,13.4251922 31.6512041,12.7478238 29.9285986,12.7478238 C28.8324762,12.7478238 28.3218435,13.0334073 28.3218435,13.567984 C28.3218435,15.422492 39.0923605,14.0677551 39.0923605,20.8441167 C39.0923605,23.6258787 36.742381,25.9792654 29.7325442,26.0149634 C23.3875102,26.0506613 21.0384218,23.196611 21.0384218,20.7004325 L27.6561497,19.8097689 C27.6561497,20.4157414 28.2452041,21.1288078 29.9285986,21.1288078 C31.4159388,21.1288078 31.8080476,20.7727208 31.8080476,20.2372517 C31.8080476,18.3827437 21.0785238,20.2372517 21.0785238,13.567984" id="Fill-6" fill="#185793"></path>
                        <path d="M52.7058449,7.86140046 C48.7500014,7.86140046 48.3988857,10.5717666 48.3988857,10.5717666 L48.2812531,10.5717666 L48.2812531,10.5012632 C48.2812531,10.001492 47.3802939,7.86140046 43.4627701,7.86140046 C40.8793075,7.86140046 39.783185,8.32547368 39.783185,8.32547368 L39.783185,13.1045355 C39.783185,13.1045355 40.2519333,12.9617437 40.6841442,12.9617437 C41.5441102,12.9617437 41.8978993,13.3535286 41.8978993,14.0674874 L41.8978993,32.8258627 L49.1421102,32.8258627 L49.1421102,25.4444211 L49.3381646,25.4444211 C49.3381646,25.4444211 50.5136,25.9789977 52.1185728,25.9789977 C57.0145864,25.9789977 60.0293687,23.3400275 60.0293687,16.9911487 C60.0293687,10.5717666 56.7008993,7.86140046 52.7058449,7.86140046 M50.787185,20.8786545 C49.2214231,20.8786545 48.5165184,20.1655881 48.5165184,17.1339405 C48.5165184,14.0674874 49.2989537,13.1045355 50.787185,13.1045355 C52.0018313,13.1045355 52.9803211,13.9603936 52.9803211,17.1339405 C52.9803211,20.2735744 52.0018313,20.8786545 50.787185,20.8786545" id="Fill-8" fill="#185793"></path>
                        <path d="M64.5493143,0.294864989 C66.8208721,0.294864989 68.5434776,1.95303432 68.5434776,4.24573455 C68.5434776,6.53664989 66.8208721,8.15555149 64.5493143,8.15555149 C62.2777565,8.15555149 60.5943619,6.53664989 60.5943619,4.24573455 C60.5943619,1.95303432 62.2777565,0.294864989 64.5493143,0.294864989" id="Fill-10" fill="#AED148"></path>
                        <path d="M70.3869238,20.7007002 L70.3869238,25.4788696 C70.3869238,25.4788696 69.2934748,25.9429428 66.7073388,25.9429428 C63.1444952,25.9429428 61.0271075,24.6230114 61.0271075,21.450357 L61.0271075,11.8511808 C64.7984816,11.6923249 67.2607469,10.3402654 68.2731007,8.16358352 L68.2731007,19.7377483 C68.2731007,20.4508146 68.6251075,20.8452769 69.4886381,20.8452769 C69.9181755,20.8452769 70.3869238,20.7007002 70.3869238,20.7007002" id="Fill-12" fill="#185793"></path>
                        <path d="M72.2791163,25.7654348 L72.2791163,14.0672197 C72.2791163,13.3532609 71.9271095,12.961476 71.0653612,12.961476 C70.6340415,12.961476 70.164402,13.1042677 70.164402,13.1042677 L70.164402,8.32520595 C70.164402,8.32520595 71.2605245,7.86113272 73.8457694,7.86113272 C77.6447694,7.86113272 78.6633612,10.6080892 78.6633612,11.2854577 L78.6633612,11.4291419 L78.8986265,11.4291419 C78.8986265,11.4291419 80.1123816,7.86113272 84.653715,7.86113272 C85.7899395,7.86113272 86.4565245,8.1476087 86.3772116,8.1476087 L86.3772116,13.9610183 C86.4565245,13.9610183 85.673198,13.6745423 83.9505925,13.6745423 C80.7379735,13.6745423 79.5233272,15.3157551 79.5233272,18.4544966 L79.5233272,25.7654348 L72.2791163,25.7654348 Z" id="Fill-14" fill="#185793"></path>
                        <path d="M96.3093286,20.7728101 C95.1731041,20.7728101 94.3122469,20.3078444 94.0769816,18.3114371 L96.9367027,18.3114371 C101.948567,18.3114371 104.690655,17.0272037 104.690655,13.9241602 C104.690655,11.2851899 103.0839,7.86175744 96.1916959,7.86175744 C90.0035054,7.86175744 86.7151381,10.3231304 86.7151381,17.1699954 C86.7151381,23.7678673 89.9642946,25.9436568 96.1132741,25.9436568 C101.674982,25.9436568 104.650553,23.5179817 104.650553,19.7027643 L98.4240429,19.1672952 C98.4240429,20.4158307 97.6407163,20.7728101 96.3093286,20.7728101 M96.3485395,12.3900412 C97.7966687,12.3900412 98.5015735,13.104 98.5015735,14.2097437 C98.5015735,15.1021922 97.6407163,15.6358764 96.1916959,15.6358764 L94.0769816,15.6358764 C94.2739272,12.8907048 95.0180429,12.3900412 96.3485395,12.3900412" id="Fill-16" fill="#185793"></path>
                        <mask id="mask-2" fill="white">
                            <use xlink:href="#path-1"></use>
                        </mask>
                        <g id="Clip-19"></g>
                        <path d="M54.3551973,48.0878032 L55.0966395,48.0878032 L55.0966395,42.0039817 L54.3551973,42.0039817 L54.3551973,48.0878032 Z M54.3551973,40.8607551 L55.0966395,40.8607551 L55.0966395,39.6702288 L54.3551973,39.6702288 L54.3551973,40.8607551 Z M56.5100136,48.0878032 L57.2514558,48.0878032 L57.2514558,44.5394279 C57.2746259,43.3480092 57.9813129,42.4519908 59.1585306,42.4519908 C60.3589184,42.4519908 60.7011224,43.2427002 60.7011224,44.2913272 L60.7011224,48.0878032 L61.4425646,48.0878032 L61.4425646,44.173524 C61.4425646,42.7232952 60.9248027,41.8272769 59.2173469,41.8272769 C58.3582721,41.8272769 57.5455374,42.3225858 57.2746259,43.0535011 L57.2514558,43.0535011 L57.2514558,42.0039817 L56.5100136,42.0039817 L56.5100136,48.0878032 Z M64.0206803,40.1771396 L63.2792381,40.1771396 L63.2792381,42.0039817 L62.2196531,42.0039817 L62.2196531,42.6295881 L63.2792381,42.6295881 L63.2792381,46.7910755 C63.2667619,47.8289931 63.6080748,48.1583066 64.5972585,48.1583066 C64.8209388,48.1583066 65.033034,48.135103 65.2567143,48.135103 L65.2567143,47.4987872 C65.044619,47.5219908 64.8325238,47.5335927 64.6213197,47.5335927 C64.0910816,47.4987872 64.0206803,47.215881 64.0206803,46.7321739 L64.0206803,42.6295881 L65.2567143,42.6295881 L65.2567143,42.0039817 L64.0206803,42.0039817 L64.0206803,40.1771396 Z M71.4368844,45.2462471 C71.4965918,43.5372082 70.7195034,41.8272769 68.7651973,41.8272769 C66.8340612,41.8272769 66.0222177,43.4426087 66.0222177,45.0463387 C66.0222177,46.7794737 66.8340612,48.264508 68.7651973,48.264508 C70.2953129,48.264508 71.0955714,47.4630892 71.4137143,46.0833638 L70.6722721,46.0833638 C70.4370068,47.0034783 69.8479524,47.6397941 68.7651973,47.6397941 C67.3402381,47.6397941 66.7752449,46.3314645 66.7636599,45.2462471 L71.4368844,45.2462471 Z M66.7636599,44.6215332 C66.8812925,43.5131121 67.5523333,42.4519908 68.7651973,42.4519908 C69.965585,42.4519908 70.6606871,43.5015103 70.6954422,44.6215332 L66.7636599,44.6215332 Z M72.4376531,48.0878032 L73.1799864,48.0878032 L73.1799864,44.8455378 C73.1799864,43.584508 74.0978776,42.5938902 75.4399592,42.6643936 L75.4399592,41.9218764 C74.345619,41.8745767 73.5212993,42.4519908 73.1443401,43.4310069 L73.1211701,43.4310069 L73.1211701,42.0039817 L72.4376531,42.0039817 L72.4376531,48.0878032 Z M76.3462653,48.0878032 L77.0877075,48.0878032 L77.0877075,44.5394279 C77.1117687,43.3480092 77.8175646,42.4519908 78.9956735,42.4519908 C80.1960612,42.4519908 80.5373741,43.2427002 80.5373741,44.2913272 L80.5373741,48.0878032 L81.2788163,48.0878032 L81.2788163,44.173524 C81.2788163,42.7232952 80.7610544,41.8272769 79.0544898,41.8272769 C78.1945238,41.8272769 77.3826803,42.3225858 77.1117687,43.0535011 L77.0877075,43.0535011 L77.0877075,42.0039817 L76.3462653,42.0039817 L76.3462653,48.0878032 Z M86.5651565,45.7299542 C86.5767415,46.9204805 85.5759728,47.6397941 84.4459864,47.6397941 C83.7508844,47.6397941 83.0923197,47.1801831 83.0923197,46.4376659 C83.0923197,45.2462471 84.6580816,45.2587414 85.9172857,45.0347368 C86.1177959,44.9990389 86.4475238,44.9401373 86.5410952,44.7634325 L86.5651565,44.7634325 L86.5651565,45.7299542 Z M83.3507551,43.8674142 C83.3748163,42.8767963 84.0574422,42.4519908 84.9753333,42.4519908 C85.8468844,42.4519908 86.5651565,42.7000915 86.5651565,43.7023112 C86.5651565,44.3743249 86.2238435,44.4564302 85.611619,44.5278261 C84.0102109,44.7161327 82.3499864,44.7750343 82.3499864,46.4849657 C82.3499864,47.7102975 83.2687687,48.264508 84.3871701,48.264508 C85.5528027,48.264508 86.0821497,47.8164989 86.6008027,47.0266819 L86.6239728,47.0266819 C86.6239728,47.6638902 86.7416054,48.0878032 87.4955238,48.0878032 C87.6951429,48.0878032 87.8127755,48.0762014 87.9776395,48.0405034 L87.9776395,47.4157895 C87.9188231,47.4398856 87.8243605,47.4630892 87.7423741,47.4630892 C87.4482925,47.4630892 87.3065986,47.2979863 87.3065986,47.0150801 L87.3065986,43.7844165 C87.3065986,42.1574828 86.140966,41.8272769 85.0697959,41.8272769 C83.680483,41.8272769 82.6797143,42.440389 82.6093129,43.8674142 L83.3507551,43.8674142 Z M89.9675918,40.1771396 L89.2252585,40.1771396 L89.2252585,42.0039817 L88.1665646,42.0039817 L88.1665646,42.6295881 L89.2252585,42.6295881 L89.2252585,46.7910755 C89.2136735,47.8289931 89.5549864,48.1583066 90.5441701,48.1583066 C90.7678503,48.1583066 90.9799456,48.135103 91.2036259,48.135103 L91.2036259,47.4987872 C90.9915306,47.5219908 90.7794354,47.5335927 90.5682313,47.5335927 C90.0379932,47.4987872 89.9675918,47.215881 89.9675918,46.7321739 L89.9675918,42.6295881 L91.2036259,42.6295881 L91.2036259,42.0039817 L89.9675918,42.0039817 L89.9675918,40.1771396 Z M92.286381,48.0878032 L93.0278231,48.0878032 L93.0278231,42.0039817 L92.286381,42.0039817 L92.286381,48.0878032 Z M92.286381,40.8607551 L93.0278231,40.8607551 L93.0278231,39.6702288 L92.286381,39.6702288 L92.286381,40.8607551 Z M97.0193129,41.8272769 C95.1594694,41.8272769 94.1462245,43.3016018 94.1462245,45.0463387 C94.1462245,46.7910755 95.1594694,48.264508 97.0193129,48.264508 C98.8791565,48.264508 99.8915102,46.7910755 99.8915102,45.0463387 C99.8915102,43.3016018 98.8791565,41.8272769 97.0193129,41.8272769 L97.0193129,41.8272769 Z M97.0193129,42.4519908 C98.443381,42.4519908 99.150068,43.749611 99.150068,45.0463387 C99.150068,46.3430664 98.443381,47.6397941 97.0193129,47.6397941 C95.5943537,47.6397941 94.8885578,46.3430664 94.8885578,45.0463387 C94.8885578,43.749611 95.5943537,42.4519908 97.0193129,42.4519908 L97.0193129,42.4519908 Z M100.986741,48.0878032 L101.728184,48.0878032 L101.728184,44.5394279 C101.752245,43.3480092 102.458041,42.4519908 103.635259,42.4519908 C104.836537,42.4519908 105.17785,43.2427002 105.17785,44.2913272 L105.17785,48.0878032 L105.919293,48.0878032 L105.919293,44.173524 C105.919293,42.7232952 105.401531,41.8272769 103.694075,41.8272769 C102.835,41.8272769 102.022265,42.3225858 101.752245,43.0535011 L101.728184,43.0535011 L101.728184,42.0039817 L100.986741,42.0039817 L100.986741,48.0878032 Z M111.205633,45.7299542 C111.217218,46.9204805 110.216449,47.6397941 109.086463,47.6397941 C108.391361,47.6397941 107.731905,47.1801831 107.731905,46.4376659 C107.731905,45.2462471 109.298558,45.2587414 110.557762,45.0347368 C110.758272,44.9990389 111.088,44.9401373 111.181571,44.7634325 L111.205633,44.7634325 L111.205633,45.7299542 Z M107.991231,43.8674142 C108.015293,42.8767963 108.697918,42.4519908 109.61581,42.4519908 C110.487361,42.4519908 111.205633,42.7000915 111.205633,43.7023112 C111.205633,44.3743249 110.86432,44.4564302 110.252095,44.5278261 C108.650687,44.7161327 106.990463,44.7750343 106.990463,46.4849657 C106.990463,47.7102975 107.909245,48.264508 109.027646,48.264508 C110.193279,48.264508 110.722626,47.8164989 111.240388,47.0266819 L111.264449,47.0266819 C111.264449,47.6638902 111.382082,48.0878032 112.135109,48.0878032 C112.335619,48.0878032 112.453252,48.0762014 112.618116,48.0405034 L112.618116,47.4157895 C112.559299,47.4398856 112.464837,47.4630892 112.38285,47.4630892 C112.087878,47.4630892 111.947075,47.2979863 111.947075,47.0150801 L111.947075,43.7844165 C111.947075,42.1574828 110.781442,41.8272769 109.710272,41.8272769 C108.320959,41.8272769 107.32019,42.440389 107.249789,43.8674142 L107.991231,43.8674142 Z M113.442435,48.0878032 L114.183878,48.0878032 L114.183878,39.6702288 L113.442435,39.6702288 L113.442435,48.0878032 Z" id="Fill-18" fill="#FEFEFE" mask="url(#mask-2)"></path>
                    </g>
                </g>
            </g>
        </g>
    </g>
</svg>